<svg xmlns="http://www.w3.org/2000/svg" width="96" height="96" id="enterpreneur"><g transform="translate(0 -956.362)"><circle cx="48" cy="1004.362" r="48" fill="#1d67b1"></circle><path fill="#fff" d="M29.502 973.362c-.822 0-1.5.678-1.5 1.5 0 .823.678 1.5 1.5 1.5.823 0 1.5-.677 1.5-1.5 0-.822-.677-1.5-1.5-1.5zm32.012 0a.5.5 0 0 0-.441.258l-.25.432-.434-.25a.5.5 0 0 0-.236-.07.5.5 0 0 0-.264.937l.434.25-.25.432a.5.5 0 1 0 .867.5l.25-.432.432.25a.5.5 0 1 0 .5-.867l-.432-.25.25-.432a.5.5 0 0 0-.426-.758zm-32.012 1c.283 0 .5.218.5.5 0 .282-.217.5-.5.5a.493.493 0 0 1-.5-.5c0-.282.218-.5.5-.5zm18.5 3.5c-5.793 0-10.5 4.707-10.5 10.5.002.897.122 1.784.346 2.64-.216.372-.346.802-.346 1.26v2c0 1.213.874 2.225 2.022 2.45a8.468 8.468 0 0 0 2.978 6.03v4.269c-.141.07-1.766.877-2.632 1.304a.5.5 0 0 0-.086.041c-2.929 1.444-7.305 3.596-8.73 4.325-.94.48-2.167 1.032-3.19 1.847-1.024.815-1.862 1.953-1.862 3.483v15.351h44v-15.351c0-1.501-.707-2.606-1.68-3.403-.971-.797-2.197-1.347-3.376-1.931l-11.444-5.666v-4.27a8.468 8.468 0 0 0 2.979-6.03 2.504 2.504 0 0 0 2.021-2.448v-2a2.529 2.529 0 0 0-.195-.975c-.042-.1-.098-.19-.152-.281.225-.858.346-1.745.347-2.643 0-5.793-4.706-10.5-10.5-10.5v-.002zm0 1c5.253 0 9.5 4.248 9.5 9.5-.002 1.395-.414 2.716-1 3.965v-4.055a.5.5 0 0 0-.417-.492 5.474 5.474 0 0 1-3.55-2.207.5.5 0 0 0-.79-.027 12.27 12.27 0 0 1-2.57 2.33 12.273 12.273 0 0 1-9.083 1.877.5.5 0 0 0-.59.49v2.088c-.585-1.25-.997-2.573-1-3.969 0-5.252 4.248-9.5 9.5-9.5zm4.125 7.674a6.389 6.389 0 0 0 3.375 2.072v7.655c0 4.163-3.336 7.5-7.5 7.5a7.473 7.473 0 0 1-7.5-7.5v-5.534c3.216.445 6.505-.188 9.23-2.023.91-.612 1.679-1.373 2.395-2.17zm-29.632.82a.5.5 0 0 0-.493.506v.5h-.5a.5.5 0 1 0 0 1h.5v.5a.5.5 0 1 0 1 0v-.5h.5a.5.5 0 1 0 0-1h-.5v-.5a.5.5 0 0 0-.507-.506zm50.275 1.26a.5.5 0 0 0-.44.256l-.5.867a.5.5 0 1 0 .866.5l.5-.867a.5.5 0 0 0-.426-.756zm-2.73.734a.5.5 0 0 0-.051 0 .5.5 0 0 0-.213.936l.865.5a.5.5 0 1 0 .5-.865l-.865-.5a.5.5 0 0 0-.236-.072zm2.603 1.504a.5.5 0 0 0-.05 0 .5.5 0 0 0-.214.936l.868.5a.5.5 0 1 0 .5-.865l-.868-.5a.5.5 0 0 0-.236-.072zm-1.377.368a.5.5 0 0 0-.44.255l-.5.866a.5.5 0 1 0 .866.5l.5-.866a.5.5 0 0 0-.426-.755zm-26.764.142c-.994 0-1.92.51-2.425 1.35a.5.5 0 0 0 .447.77.5.5 0 0 0 .05-.01.5.5 0 0 0 .36-.25c.319-.53.916-.864 1.568-.864.653 0 1.25.334 1.569.863a.5.5 0 0 0 .213.204.5.5 0 0 0 .191.053.5.5 0 0 0 .05 0 .5.5 0 0 0 .05 0 .5.5 0 0 0 .353-.766 2.824 2.824 0 0 0-2.426-1.35zm7 0c-.248 0-.492.031-.726.092a2.797 2.797 0 0 0-1.7 1.258.5.5 0 0 0 .253.74.5.5 0 0 0 .146.03.5.5 0 0 0 .049 0 .5.5 0 0 0 .05-.01.5.5 0 0 0 .36-.25c.319-.53.916-.864 1.568-.864.653 0 1.25.333 1.569.863a.5.5 0 0 0 .213.203.5.5 0 0 0 .191.053.5.5 0 0 0 .05 0 .5.5 0 0 0 .05 0 .5.5 0 0 0 .353-.765 2.824 2.824 0 0 0-2.426-1.35zm6 1.43v1.469c0 .662-.414 1.207-1 1.41v-1.174c.39-.538.722-1.11 1-1.705zm-19 0c.28.595.611 1.166 1 1.703v1.172c-.585-.203-1-.748-1-1.41v-1.465zm6 .564a.5.5 0 0 0-.5.5.5.5 0 0 0 .5.5.5.5 0 0 0 .5-.5.5.5 0 0 0-.5-.5zm7 0a.5.5 0 0 0-.5.5.5.5 0 0 0 .5.5.5.5 0 0 0 .5-.5.5.5 0 0 0-.5-.5zm-3.507 1a.5.5 0 0 0-.493.512v1.998a.5.5 0 1 0 1 0v-1.998a.5.5 0 0 0-.507-.508zm-15.916 4a.5.5 0 0 0-.35.86l.354.353-.354.354a.5.5 0 1 0 .707.707l.354-.354.353.354a.5.5 0 1 0 .707-.707l-.353-.354.353-.353a.5.5 0 0 0-.363-.858.5.5 0 0 0-.344.15l-.353.354-.354-.353a.5.5 0 0 0-.357-.153zm18.351.989a.5.5 0 0 0-.344.148 2.993 2.993 0 0 1-4.173.041.5.5 0 1 0-.69.725 4.006 4.006 0 0 0 5.565-.057.5.5 0 0 0-.358-.86zm10.803 2.054c-.481.035-.94.3-1.197.744a1.508 1.508 0 0 0 .55 2.05 1.507 1.507 0 0 0 2.05-.55 1.507 1.507 0 0 0-.55-2.048 1.489 1.489 0 0 0-.853-.196zm.162.996c.065.01.13.03.191.064.245.142.323.44.182.684a.49.49 0 0 1-.682.182.491.491 0 0 1-.183-.682.49.49 0 0 1 .492-.248zm-17.893 1.07a8.46 8.46 0 0 0 9 0v3.47l-4.373 1.94a.5.5 0 0 0-.123-.015.5.5 0 0 0-.127.016l-4.377-1.943v-3.467zm-.427 4.374 3.998 1.773-.936.98-2.101 2.042-3.186-3.692c.637-.314 2.144-1.063 2.225-1.103zm9.855 0 2.225 1.101-3.186 3.692-2.101-2.041-.936-.98 3.998-1.772zm-13.006 1.558 3.7 4.29a.5.5 0 0 0 .726.028l1.098-1.066.369.389-1.81 13.312a.5.5 0 0 0 .091.361l3.5 4.84a.5.5 0 0 0 .809 0l3.5-4.84a.5.5 0 0 0 .092-.36l-1.811-13.315.367-.385 1.1 1.066a.5.5 0 0 0 .726-.03l3.7-4.29 8.421 4.172c1.199.594 2.364 1.134 3.186 1.809.823.676 1.314 1.425 1.314 2.63v14.352h-6v-9.05h-1v9.05h-28v-9.05h-1v9.05h-6v-14.351c0-1.177.595-1.993 1.483-2.7.888-.706 2.052-1.243 3.023-1.74 1.344-.686 5.401-2.683 8.416-4.17zm-17.67.479a.5.5 0 0 0-.441.256l-.5.867a.5.5 0 1 0 .865.5l.5-.867a.5.5 0 0 0-.424-.756zm25.748.3 1.149 1.116.66.691-.36.377h-2.9l-.357-.377.685-.718 1.123-1.088zm-28.53.438a.5.5 0 0 0-.214.938l.868.5a.5.5 0 1 0 .5-.868l-.868-.5a.5.5 0 0 0-.236-.07.5.5 0 0 0-.05 0zm2.655 1.502a.5.5 0 0 0-.05 0 .5.5 0 0 0-.213.936l.865.5a.5.5 0 1 0 .5-.866l-.865-.5a.5.5 0 0 0-.237-.07zm-1.376.367a.5.5 0 0 0-.442.256l-.5.865a.5.5 0 1 0 .865.5l.5-.865a.5.5 0 0 0-.423-.756zm26.03.877h2.444l1.756 12.93-2.979 4.119-2.978-4.12 1.758-12.929zm28.448.055a.5.5 0 0 0-.441.637l.129.484-.483.13a.5.5 0 1 0 .26.964l.482-.129.13.482a.5.5 0 1 0 .966-.257l-.129-.485.483-.129a.5.5 0 0 0-.127-.984.5.5 0 0 0-.133.02l-.483.128-.129-.482a.5.5 0 0 0-.474-.38.5.5 0 0 0-.051 0z"></path></g></svg>